<svg width="57" height="57" viewBox="0 0 57 57" fill="none" xmlns="http://www.w3.org/2000/svg">
<rect width="57" height="57" rx="5.7" fill="#EEF0F2"/>
<path fill-rule="evenodd" clip-rule="evenodd" d="M28.6877 13.2757C26.1526 14.4453 24.5087 17.5326 24.5087 21.1252V23.8816H21.3745H18.2402V26.7389V29.5962H21.3745H24.5087V38.1681V46.74H27.6429H30.7772V38.1681V29.5962H33.6502C35.584 29.5962 36.5332 29.4014 36.5546 29.0009C36.5713 28.6737 36.7693 27.3875 36.9939 26.1436L37.4024 23.8816H34.0895H30.7772V21.8124C30.7772 19.0989 31.8961 18.1669 35.1541 18.1669H37.6202L37.4635 15.4287L37.3068 12.6904L33.9114 12.5614C31.474 12.469 29.9999 12.6704 28.6877 13.2757Z" fill="#252525"/>
</svg>
