<svg width="57" height="57" viewBox="0 0 57 57" fill="none" xmlns="http://www.w3.org/2000/svg">
<rect width="57" height="57" rx="5.7" fill="#EEF0F2"/>
<path fill-rule="evenodd" clip-rule="evenodd" d="M19.7957 13.9606C16.8535 14.8815 14.2716 17.8517 13.8263 20.8279C13.6919 21.7259 13.6404 25.8243 13.7119 29.9353C13.8527 38.0288 13.9938 38.6361 16.2537 40.9022C18.5986 43.2526 18.9413 43.32 28.5809 43.32C38.2204 43.32 38.5632 43.2526 40.908 40.9022C43.2525 38.5513 43.3197 38.2077 43.3197 28.5436C43.3197 18.8794 43.2525 18.5358 40.908 16.1849C38.6013 13.8727 38.1367 13.7738 29.1704 13.6887C24.6309 13.6454 20.4124 13.7679 19.7957 13.9606ZM37.2646 17.7268C37.9119 18.0621 38.7868 18.9046 39.2085 19.5985C39.8995 20.7341 39.9761 21.6172 39.9773 28.4648C39.9789 36.9157 39.7725 37.8113 37.5032 39.1984C36.3689 39.8919 35.4904 39.9679 28.5809 39.9679C21.6713 39.9679 20.7929 39.8919 19.6586 39.1984C17.3931 37.8137 17.1828 36.9082 17.1828 28.5436C17.1828 20.1789 17.3931 19.2734 19.6586 17.8888C20.7913 17.196 21.6721 17.1192 28.5023 17.118C34.5837 17.1168 36.3209 17.2374 37.2646 17.7268ZM35.2778 19.4523C34.4788 20.9489 35.8882 22.4297 37.5224 21.811C38.4987 21.4414 38.7294 19.9618 37.9351 19.1655C37.2139 18.4424 35.7314 18.6024 35.2778 19.4523ZM25.2401 21.0159C18.632 24.083 18.8049 33.3934 25.5223 36.2064C30.774 38.4055 36.8173 34.3056 36.8173 28.5436C36.8173 22.6432 30.5346 18.5582 25.2401 21.0159ZM30.952 24.4129C31.586 24.7415 32.3733 25.5307 32.7011 26.1663C34.4092 29.4782 32.2094 33.272 28.5809 33.272C24.9543 33.272 22.7525 29.4782 24.4591 26.1699C25.5769 24.0019 28.5879 23.1874 30.952 24.4129Z" fill="#252525"/>
</svg>
