<svg width="57" height="57" viewBox="0 0 57 57" fill="none" xmlns="http://www.w3.org/2000/svg">
<rect width="57" height="57" rx="5.7" fill="#EEF0F2"/>
<path fill-rule="evenodd" clip-rule="evenodd" d="M15.7915 16.8929C15.2574 17.4059 14.8203 18.2685 14.8203 18.81C14.8203 20.0769 16.4683 21.66 17.7871 21.66C19.106 21.66 20.7539 20.0769 20.7539 18.81C20.7539 18.2685 20.3168 17.4059 19.7828 16.8929C19.2488 16.3799 18.3508 15.96 17.7871 15.96C17.2234 15.96 16.3255 16.3799 15.7915 16.8929ZM32.6216 23.9867C32.0777 24.1954 31.232 24.7274 30.7426 25.1689L29.8522 25.9726V24.9561C29.8522 23.9514 29.8213 23.94 27.0832 23.94H24.3141V32.49V41.04H27.0452H29.7762L29.9131 35.7971C30.0231 31.5856 30.1872 30.354 30.7474 29.5332C31.9487 27.7734 34.8954 27.6731 35.8475 29.3596C36.1316 29.8627 36.399 32.4212 36.5022 35.625L36.6767 41.04H39.4287H42.1803L42.049 34.485C41.8995 27.0457 41.4449 25.552 38.9366 24.26C37.4516 23.4946 34.2656 23.3571 32.6216 23.9867ZM14.8203 32.49V41.04H17.7871H20.7539V32.49V23.94H17.7871H14.8203V32.49Z" fill="#252525"/>
</svg>
