<svg width="57" height="57" viewBox="0 0 57 57" fill="none" xmlns="http://www.w3.org/2000/svg">
<rect width="57" height="57" rx="5.7" fill="#EEF0F2"/>
<path fill-rule="evenodd" clip-rule="evenodd" d="M32.1134 16.3307C31.2893 16.6457 30.3345 17.1475 29.9918 17.4454C28.9522 18.3486 27.8332 21.0473 27.8332 22.6513V24.1648L26.1396 23.8695C22.3961 23.2174 17.9346 20.7649 15.7899 18.18C14.8961 17.1025 14.4143 17.4637 14.0935 19.4516C13.8146 21.1783 14.5462 23.5987 15.7939 25.0784C16.4562 25.864 16.4371 25.8794 15.138 25.6166C13.8397 25.3538 13.8082 25.3796 14.07 26.4914C14.543 28.5009 15.6783 30.1133 17.2954 31.072L18.8671 32.004L17.572 32.0111C16.8595 32.0148 16.2769 32.1295 16.2769 32.2664C16.2769 33.1637 18.3124 35.1891 19.996 35.9671L21.9957 36.8908L19.8334 37.97C18.6443 38.5636 16.73 39.1744 15.5791 39.3271C14.4283 39.4802 13.5783 39.7609 13.6906 39.9507C13.8026 40.141 15.1029 40.7208 16.5801 41.2394C19.8733 42.3962 24.5998 42.4972 27.8818 41.4801C34.5677 39.4088 39.7924 32.5997 40.4631 25.0835C40.6639 22.8286 40.8779 22.2892 42.0351 21.1149C43.6363 19.4904 43.7415 18.9597 42.3523 19.5129C40.6539 20.1887 40.4638 19.9822 41.5458 18.636C42.9764 16.8563 42.8397 16.5414 40.9699 17.3102C39.4453 17.9372 39.2859 17.9268 37.8816 17.1037C35.8425 15.9094 33.8963 15.6482 32.1134 16.3307Z" fill="#252525"/>
</svg>
